<svg id="Layer_1" data-name="Layer 1" xmlns="http://www.w3.org/2000/svg" viewBox="0 0 687.33 96.68"><defs><style>.cls-1{fill:#020202;}</style></defs><title>novasbe</title><path class="cls-1" d="M.69.52,22.52,21.95a44,44,0,0,1,3.75,4.27V1.91h5.15V38.33L9.16,16.51a26.94,26.94,0,0,1-3.32-3.93V36.94H.69Z" transform="translate(-0.69 -0.52)"/><path class="cls-1" d="M76.36,32.5a18.39,18.39,0,0,1-26,0A18,18,0,0,1,45,19.5a18.1,18.1,0,0,1,5.33-13,18.38,18.38,0,0,1,31.39,13,18,18,0,0,1-5.38,13M72.22,10.19a12.07,12.07,0,0,0-8.85-3.82,12.26,12.26,0,0,0-8.89,3.82,13.31,13.31,0,0,0-3.66,9.32,13.17,13.17,0,0,0,3.66,9.26,12.18,12.18,0,0,0,17.74,0,13.14,13.14,0,0,0,3.71-9.26,13.28,13.28,0,0,0-3.71-9.32" transform="translate(-0.69 -0.52)"/><path class="cls-1" d="M90,1.91h5.81l7.7,18.67a30.89,30.89,0,0,1,1.83,5.64,37.39,37.39,0,0,1,1.86-5.64l7.69-18.67h5.77L105.36,38.33Z" transform="translate(-0.69 -0.52)"/><path class="cls-1" d="M149.25,27.92h-13.6l-4,9h-5.87L142.43.52l16.63,36.42h-5.91Zm-2-4.75-3.51-8a36.51,36.51,0,0,1-1.28-4,28.68,28.68,0,0,1-1.26,4l-3.51,8Z" transform="translate(-0.69 -0.52)"/><path class="cls-1" d="M193.7,27.83c.82,3.14,3.12,4.81,6.62,4.81s5.44-2.07,5.44-5.2c0-3.43-2.54-4.27-6.09-6-6.11-3-9.48-5.39-9.48-10.69,0-5.64,4.09-9.6,10.33-9.6,5.09,0,8.62,2.1,9.9,5.78l-4.36,2.3C204.72,7,203.14,6,201,6c-3,0-4.9,1.77-4.9,4.4,0,3.38,2.69,4.43,6.54,6.23,6,2.85,8.89,5.34,8.89,10.39,0,6.51-4.27,10.84-11.39,10.84-5.85,0-9.71-2.86-10.86-7.94Z" transform="translate(-0.69 -0.52)"/><path class="cls-1" d="M241.82,6.31c-7.54,0-12.69,5.44-12.69,13.24s5.25,13.05,12.11,13.05a16.45,16.45,0,0,0,11.1-4.42V34.6a17.54,17.54,0,0,1-10.67,3.29,18.05,18.05,0,0,1-13.17-5.2,18.51,18.51,0,0,1-5.19-13.18,18.33,18.33,0,0,1,5.25-13.2,17.91,17.91,0,0,1,13-5.25,18.43,18.43,0,0,1,11.1,3.63l-.27,5.73a15.82,15.82,0,0,0-10.59-4.12" transform="translate(-0.69 -0.52)"/><polygon class="cls-1" points="265.83 1.39 271.41 1.39 271.41 14.34 288.31 14.34 288.31 1.39 293.89 1.39 293.89 36.42 288.31 36.42 288.31 19.43 271.41 19.43 271.41 36.42 265.83 36.42 265.83 1.39"/><path class="cls-1" d="M339.52,32.5a18.36,18.36,0,0,1-26,0,17.93,17.93,0,0,1-5.34-13,18.06,18.06,0,0,1,5.34-13,18.39,18.39,0,0,1,31.38,13,17.94,17.94,0,0,1-5.39,13m-4.13-22.31a12.06,12.06,0,0,0-8.84-3.82,12.23,12.23,0,0,0-8.89,3.82A13.31,13.31,0,0,0,314,19.5a13.17,13.17,0,0,0,3.66,9.26,12.17,12.17,0,0,0,17.74,0,13.17,13.17,0,0,0,3.7-9.26,13.32,13.32,0,0,0-3.7-9.32" transform="translate(-0.69 -0.52)"/><path class="cls-1" d="M388.35,32.5a18.37,18.37,0,0,1-26,0,18,18,0,0,1-5.34-13,18.09,18.09,0,0,1,5.34-13,18.39,18.39,0,0,1,31.39,13,18,18,0,0,1-5.39,13m-4.13-22.31a12.07,12.07,0,0,0-8.85-3.82,12.29,12.29,0,0,0-8.89,3.82,13.3,13.3,0,0,0-3.65,9.32,13.16,13.16,0,0,0,3.65,9.26,12.18,12.18,0,0,0,17.74,0,13.18,13.18,0,0,0,3.71-9.26,13.32,13.32,0,0,0-3.71-9.32" transform="translate(-0.69 -0.52)"/><polygon class="cls-1" points="406.64 1.39 412.23 1.39 412.23 31.33 424.71 31.33 424.71 36.42 406.64 36.42 406.64 1.39"/><path class="cls-1" d="M482,32.5a18.39,18.39,0,0,1-26,0,18,18,0,0,1-5.33-13,18.08,18.08,0,0,1,5.33-13,18.39,18.39,0,0,1,31.4,13,18,18,0,0,1-5.39,13m-4.14-22.31A12.07,12.07,0,0,0,469,6.37a12.24,12.24,0,0,0-8.89,3.82,13.27,13.27,0,0,0-3.65,9.32,13.12,13.12,0,0,0,3.65,9.26,12.17,12.17,0,0,0,17.74,0,13.18,13.18,0,0,0,3.7-9.26,13.32,13.32,0,0,0-3.7-9.32" transform="translate(-0.69 -0.52)"/><polygon class="cls-1" points="497.38 1.39 516.56 1.39 516.56 6.23 502.96 6.23 502.96 14.96 516.56 14.96 516.56 19.95 502.96 19.95 502.96 36.42 497.38 36.42 497.38 1.39"/><path class="cls-1" d="M.69,60.75H9.35c3.66,0,6.39.14,8.5,1.76a9,9,0,0,1,3.37,7.41c0,3.71-1.73,6.32-5,7.3,4,.64,6.43,3.92,6.43,8.62a10.49,10.49,0,0,1-2.79,7.32c-2.45,2.48-5.71,2.64-10.53,2.64H.69ZM8.29,75.54c5.05,0,7.31-1.16,7.31-4.84,0-4.36-2.36-5.2-7.31-5.2H6.18v10ZM8.1,91c3.13,0,5.34-.14,6.68-1.07a5.3,5.3,0,0,0,2.16-4.46,5.16,5.16,0,0,0-2.64-4.85,9.51,9.51,0,0,0-4.51-.78H6.18V91Z" transform="translate(-0.69 -0.52)"/><path class="cls-1" d="M41,60.75V82c0,6.33,2.89,9.52,8.56,9.52s8.56-3.19,8.56-9.52V60.75h5.58v21.8C63.66,92,59,96.72,49.53,96.72S35.44,92,35.44,82.55V60.75Z" transform="translate(-0.69 -0.52)"/><path class="cls-1" d="M81.05,86.67c.81,3.13,3.13,4.8,6.63,4.8s5.43-2.06,5.43-5.2c0-3.43-2.54-4.28-6.09-6-6.12-3-9.49-5.38-9.49-10.68,0-5.63,4.1-9.61,10.34-9.61,5.1,0,8.61,2.12,9.91,5.78L93.4,68c-1.34-2.16-2.93-3.18-5.09-3.18-3,0-4.91,1.76-4.91,4.4,0,3.39,2.7,4.41,6.55,6.23,6.06,2.83,8.89,5.35,8.89,10.39,0,6.51-4.27,10.82-11.39,10.82-5.86,0-9.7-2.84-10.86-7.93Z" transform="translate(-0.69 -0.52)"/><rect class="cls-1" x="111.54" y="60.23" width="5.58" height="35.04"/><path class="cls-1" d="M133.05,59.37l21.84,21.42a44.16,44.16,0,0,1,3.75,4.27V60.75h5.15V97.17L141.5,75.36a29.31,29.31,0,0,1-3.29-3.92V95.79h-5.15Z" transform="translate(-0.69 -0.52)"/><polygon class="cls-1" points="178.16 60.23 197.34 60.23 197.34 65.08 183.74 65.08 183.74 73.85 197.34 73.85 197.34 78.85 183.74 78.85 183.74 90.18 197.34 90.18 197.34 95.27 178.16 95.27 178.16 60.23"/><path class="cls-1" d="M214.13,86.67c.82,3.13,3.13,4.8,6.63,4.8s5.43-2.06,5.43-5.2c0-3.43-2.53-4.28-6.1-6-6.1-3-9.47-5.38-9.47-10.68,0-5.63,4.1-9.61,10.35-9.61,5.1,0,8.6,2.12,9.9,5.78L226.49,68c-1.35-2.16-2.92-3.18-5.09-3.18-3,0-4.9,1.76-4.9,4.4,0,3.39,2.7,4.41,6.53,6.23,6.06,2.83,8.89,5.35,8.89,10.39,0,6.51-4.27,10.82-11.38,10.82-5.88,0-9.72-2.84-10.87-7.93Z" transform="translate(-0.69 -0.52)"/><path class="cls-1" d="M247.73,86.67c.81,3.13,3.11,4.8,6.63,4.8s5.43-2.06,5.43-5.2c0-3.43-2.55-4.28-6.11-6-6.1-3-9.47-5.38-9.47-10.68,0-5.63,4.08-9.61,10.34-9.61,5.09,0,8.6,2.12,9.9,5.78L260.09,68c-1.35-2.16-2.93-3.18-5.1-3.18-3,0-4.9,1.76-4.9,4.4,0,3.39,2.7,4.41,6.53,6.23,6.06,2.83,8.89,5.35,8.89,10.39,0,6.51-4.27,10.82-11.39,10.82-5.86,0-9.7-2.84-10.86-7.93Z" transform="translate(-0.69 -0.52)"/><path class="cls-1" d="M308.2,92.46a15.27,15.27,0,0,1-10.62,4.16c-6.44,0-10.67-4.27-10.67-10,0-4.15,2.53-7.34,7.64-10.58l-1.4-1.52a8.78,8.78,0,0,1-2.36-5.83c0-4.51,3.56-7.9,8.87-7.9s8.4,3,8.4,7.41c0,3.58-2.2,6.23-6.67,8.87l7.16,8.48A44.17,44.17,0,0,0,313,80.05l3.26,3.59a25.58,25.58,0,0,1-4.56,5.49l5.77,6.66H311ZM297.52,79.92l-.86.6c-2.83,1.84-4.42,3.47-4.42,6A5.49,5.49,0,0,0,297.82,92c2.3,0,4.71-1.09,7.2-3.29Zm2.6-7.21a4.76,4.76,0,0,0,2.65-4.17,3.16,3.16,0,0,0-3.23-3.38A3.31,3.31,0,0,0,296,68.59a4.22,4.22,0,0,0,1.1,2.75l1.74,2.1Z" transform="translate(-0.69 -0.52)"/><polygon class="cls-1" points="337.78 60.23 356.95 60.23 356.95 65.08 343.34 65.08 343.34 73.85 356.95 73.85 356.95 78.85 343.34 78.85 343.34 90.18 356.95 90.18 356.95 95.27 337.78 95.27 337.78 60.23"/><path class="cls-1" d="M388.26,65.16c-7.55,0-12.69,5.44-12.69,13.25s5.24,13,12.11,13A16.37,16.37,0,0,0,398.8,87v6.43a17.63,17.63,0,0,1-10.68,3.27,18.08,18.08,0,0,1-13.17-5.19,18.53,18.53,0,0,1-5.19-13.2A18.31,18.31,0,0,1,375,65.16a17.86,17.86,0,0,1,13-5.24,18.47,18.47,0,0,1,11.11,3.62l-.29,5.73a15.75,15.75,0,0,0-10.58-4.12" transform="translate(-0.69 -0.52)"/><path class="cls-1" d="M442.82,91.33a18.41,18.41,0,0,1-26,0,18.55,18.55,0,0,1,0-26,18.39,18.39,0,0,1,31.4,13,18,18,0,0,1-5.39,13M438.68,69a12,12,0,0,0-8.85-3.82A12.24,12.24,0,0,0,420.94,69a13.64,13.64,0,0,0,0,18.57,12.22,12.22,0,0,0,17.74,0,13.47,13.47,0,0,0,0-18.57" transform="translate(-0.69 -0.52)"/><path class="cls-1" d="M461.79,59.37l21.83,21.42a44.79,44.79,0,0,1,3.75,4.27V60.75h5.16V97.17L470.25,75.36a29.29,29.29,0,0,1-3.31-3.92V95.79h-5.15Z" transform="translate(-0.69 -0.52)"/><path class="cls-1" d="M537.45,91.33a18.39,18.39,0,0,1-26,0,18.53,18.53,0,0,1,0-26,18.38,18.38,0,0,1,31.38,13,18,18,0,0,1-5.39,13M533.31,69a12,12,0,0,0-8.83-3.82,12.23,12.23,0,0,0-8.9,3.82,13.64,13.64,0,0,0,0,18.57,12.15,12.15,0,0,0,8.9,3.82,12,12,0,0,0,8.83-3.82,13.47,13.47,0,0,0,0-18.57" transform="translate(-0.69 -0.52)"/><path class="cls-1" d="M583.82,73.68a18,18,0,0,1-1.58,4.85l-9,18.67-9-19.05a28.3,28.3,0,0,1-1.68-4.46,27.61,27.61,0,0,1-.62,4.85l-3.71,17.26H553.1l8.15-36.42,10.14,22c.29.63.92,2.21,1.86,4.75.69-2,1.47-3.53,2-4.75l9.91-22,8.31,36.42h-5.19l-3.8-17.3c-.14-.64-.29-2.21-.63-4.81" transform="translate(-0.69 -0.52)"/><rect class="cls-1" x="604.51" y="60.23" width="5.57" height="35.04"/><path class="cls-1" d="M643,65.16c-7.55,0-12.69,5.44-12.69,13.25s5.25,13,12.12,13A16.41,16.41,0,0,0,653.57,87v6.43a17.65,17.65,0,0,1-10.68,3.27,18,18,0,0,1-13.17-5.19,18.53,18.53,0,0,1-5.19-13.2,18.34,18.34,0,0,1,5.24-13.18,17.88,17.88,0,0,1,13-5.24,18.46,18.46,0,0,1,11.1,3.62l-.28,5.73A15.75,15.75,0,0,0,643,65.16" transform="translate(-0.69 -0.52)"/><path class="cls-1" d="M670.23,86.67c.82,3.13,3.13,4.8,6.64,4.8s5.43-2.06,5.43-5.2c0-3.43-2.55-4.28-6.11-6-6.1-3-9.46-5.38-9.46-10.68,0-5.63,4.08-9.61,10.33-9.61,5.1,0,8.61,2.12,9.91,5.78L682.58,68c-1.34-2.16-2.93-3.18-5.08-3.18-3,0-4.91,1.76-4.91,4.4,0,3.39,2.69,4.41,6.53,6.23,6.07,2.83,8.9,5.35,8.9,10.39,0,6.51-4.29,10.82-11.39,10.82-5.88,0-9.72-2.84-10.87-7.93Z" transform="translate(-0.69 -0.52)"/></svg>